<?xml version="1.0" encoding="UTF-8" standalone="no"?>
<svg width="1089px" height="323px" viewBox="0 0 1089 323" version="1.1" xmlns="http://www.w3.org/2000/svg" xmlns:xlink="http://www.w3.org/1999/xlink" xmlns:sketch="http://www.bohemiancoding.com/sketch/ns">
    <title>Artboard 1</title>
    <description>Created with Sketch (http://www.bohemiancoding.com/sketch)</description>
    <defs></defs>
    <g id="Page-1" stroke="none" stroke-width="1" fill="none" fill-rule="evenodd" sketch:type="MSPage">
        <g id="Artboard-1" sketch:type="MSArtboardGroup" fill="#FFFFFF">
            <path d="M120.56,132.08 L95.5,132.08 L95.5,114.72 L166.34,114.72 L166.34,132.08 L141.28,132.08 L141.28,206 L120.56,206 L120.56,132.08 Z M223.04,206 L205.54,173.1 L194.2,173.1 L194.2,206 L173.62,206 L173.62,114.72 L206.52,114.72 C211.373358,114.72 215.923312,115.186662 220.17,116.12 C224.416688,117.053338 228.126651,118.616656 231.3,120.81 C234.473349,123.003344 236.993324,125.919982 238.86,129.56 C240.726676,133.200018 241.66,137.72664 241.66,143.14 C241.66,149.860034 240.190015,155.389978 237.25,159.73 C234.309985,164.070022 230.366691,167.313323 225.42,169.46 L246.14,206 L223.04,206 Z M194.2,156.72 L204.84,156.72 C210.25336,156.72 214.383319,155.576678 217.23,153.29 C220.076681,151.003322 221.5,147.620022 221.5,143.14 C221.5,138.659978 220.076681,135.533342 217.23,133.76 C214.383319,131.986658 210.25336,131.1 204.84,131.1 L194.2,131.1 L194.2,156.72 Z M303.3,184.3 L275.44,184.3 L269.84,206 L248.84,206 L277.4,114.72 L302.18,114.72 L330.74,206 L308.9,206 L303.3,184.3 Z M299.1,168.2 L297,159.8 C295.693327,155.226644 294.433339,150.373359 293.22,145.24 C292.006661,140.106641 290.793339,135.160024 289.58,130.4 L289.02,130.4 C287.899994,135.253358 286.756673,140.223308 285.59,145.31 C284.423328,150.396692 283.186673,155.226644 281.88,159.8 L279.64,168.2 L299.1,168.2 Z M334.68,114.72 L392.22,114.72 L392.22,132.08 L355.26,132.08 L355.26,153.22 L386.9,153.22 L386.9,170.58 L355.26,170.58 L355.26,206 L334.68,206 L334.68,114.72 Z M402.04,114.72 L422.62,114.72 L422.62,206 L402.04,206 L402.04,114.72 Z M456.76,114.72 L456.76,152.1 L457.32,152.1 L484.48,114.72 L507.16,114.72 L479.58,151.12 L512.2,206 L489.66,206 L467.4,167.5 L456.76,181.5 L456.76,206 L436.18,206 L436.18,114.72 L456.76,114.72 Z M517.14,114.72 L537.72,114.72 L537.72,149.86 L569.22,149.86 L569.22,114.72 L589.94,114.72 L589.94,206 L569.22,206 L569.22,167.92 L537.72,167.92 L537.72,206 L517.14,206 L517.14,114.72 Z M610.96,180.8 C612.640008,183.880015 614.599989,186.166659 616.84,187.66 C619.080011,189.153341 621.366655,189.9 623.7,189.9 C627.433352,189.9 630.256657,188.756678 632.17,186.47 C634.083343,184.183322 635.04,180.006697 635.04,173.94 L635.04,114.72 L655.62,114.72 L655.62,175.62 C655.62,180.006689 655.036673,184.15998 653.87,188.08 C652.703328,192.00002 650.930012,195.406652 648.55,198.3 C646.169988,201.193348 643.136685,203.479992 639.45,205.16 C635.763315,206.840008 631.400025,207.68 626.36,207.68 C619.359965,207.68 613.503357,206.32668 608.79,203.62 C604.076643,200.91332 600.133349,196.760028 596.96,191.16 C596.96,191.16 600.133349,196.760028 596.96,191.16 L610.96,180.8 Z M711.6,184.3 L683.74,184.3 L678.14,206 L657.14,206 L685.7,114.72 L710.48,114.72 L739.04,206 L717.2,206 L711.6,184.3 Z M707.4,168.2 L705.3,159.8 C703.993327,155.226644 702.733339,150.373359 701.52,145.24 C700.306661,140.106641 699.093339,135.160024 697.88,130.4 L697.32,130.4 C696.199994,135.253358 695.056672,140.223308 693.89,145.31 C692.723327,150.396692 691.486673,155.226644 690.18,159.8 L687.94,168.2 L707.4,168.2 Z M683.74,108 C680.846652,108 678.490009,107.066676 676.67,105.2 C674.849991,103.333324 673.94,101.000014 673.94,98.2 C673.94,95.399986 674.849991,93.066676 676.67,91.2 C678.490009,89.333324 680.846652,88.4 683.74,88.4 C686.633348,88.4 688.989991,89.333324 690.81,91.2 C692.630009,93.066676 693.54,95.399986 693.54,98.2 C693.54,101.000014 692.630009,103.333324 690.81,105.2 C688.989991,107.066676 686.633348,108 683.74,108 Z M711.46,108 C708.566652,108 706.210009,107.066676 704.39,105.2 C702.569991,103.333324 701.66,101.000014 701.66,98.2 C701.66,95.399986 702.569991,93.066676 704.39,91.2 C706.210009,89.333324 708.566652,88.4 711.46,88.4 C714.353348,88.4 716.709991,89.333324 718.53,91.2 C720.350009,93.066676 721.26,95.399986 721.26,98.2 C721.26,101.000014 720.350009,103.333324 718.53,105.2 C716.709991,107.066676 714.353348,108 711.46,108 Z M742.98,114.72 L763.56,114.72 L763.56,188.64 L799.68,188.64 L799.68,206 L742.98,206 L742.98,114.72 Z M810.48,132.08 L785.42,132.08 L785.42,114.72 L856.26,114.72 L856.26,132.08 L831.2,132.08 L831.2,206 L810.48,206 L810.48,132.08 Z M896.78,184.3 L868.92,184.3 L863.32,206 L842.32,206 L870.88,114.72 L895.66,114.72 L924.22,206 L902.38,206 L896.78,184.3 Z M892.58,168.2 L890.48,159.8 C889.173327,155.226644 887.913339,150.373359 886.7,145.24 C885.486661,140.106641 884.273339,135.160024 883.06,130.4 L882.5,130.4 C881.379994,135.253358 880.236672,140.223308 879.07,145.31 C877.903327,150.396692 876.666673,155.226644 875.36,159.8 L873.12,168.2 L892.58,168.2 Z M977.58,206 L960.08,173.1 L948.74,173.1 L948.74,206 L928.16,206 L928.16,114.72 L961.06,114.72 C965.913358,114.72 970.463312,115.186662 974.71,116.12 C978.956688,117.053338 982.666651,118.616656 985.84,120.81 C989.013349,123.003344 991.533324,125.919982 993.4,129.56 C995.266676,133.200018 996.2,137.72664 996.2,143.14 C996.2,149.860034 994.730015,155.389978 991.79,159.73 C988.849985,164.070022 984.906691,167.313323 979.96,169.46 L1000.68,206 L977.58,206 Z M948.74,156.72 L959.38,156.72 C964.79336,156.72 968.923319,155.576678 971.77,153.29 C974.616681,151.003322 976.04,147.620022 976.04,143.14 C976.04,138.659978 974.616681,135.533342 971.77,133.76 C968.923319,131.986658 964.79336,131.1 959.38,131.1 L948.74,131.1 L948.74,156.72 Z M948.74,156.72" id="TRAFIKHJÄLTAR" sketch:type="MSShapeGroup"></path>
        </g>
    </g>
</svg>